# xmcd
#
# Track frame offsets:
#	150
#	16380
#	34200
#	47452
#	66000
#	83397
#	104637
#	122317
#	146700
#	161805
#	173720
#	188755
#
# Disc length: 2694 seconds
#
# Revision: 0
# Processed by: cddbd v1.4PL0 Copyright (c) Steve Scherf et al.
# Submitted via: dBpowerAMP V4.0
#
DISCID=950a840c
DTITLE=The Chapmans - Follow Me
DYEAR=2001
DGENRE=Bluegrass
TTITLE0=Loosing Again
TTITLE1=My Heart's Bouquet
TTITLE2=Follow Me To Tennessee
TTITLE3=No Reason To Stay
TTITLE4=Candy Kisses
TTITLE5=Grandpa's Walking Cane
TTITLE6=Old Man In The Shanty
TTITLE7=Don't Let Me Cross Over (Love's Cheating Line)
TTITLE8=I'm Going Back To Old Kentucky
TTITLE9=You Send Me
TTITLE10=Consider The Lilies
TTITLE11=Trains Make Me Want To Say Goodbye
EXTD=
EXTT0=
EXTT1=
EXTT2=
EXTT3=
EXTT4=
EXTT5=
EXTT6=
EXTT7=
EXTT8=
EXTT9=
EXTT10=
EXTT11=
PLAYORDER=
